<svg width="60" height="60" viewBox="0 0 60 60" fill="none" xmlns="http://www.w3.org/2000/svg">
<path d="M29.9999 0.833374C26.1697 0.833374 22.377 1.58779 18.8383 3.05355C15.2997 4.51932 12.0843 6.66772 9.37597 9.37609C3.90616 14.8459 0.833252 22.2646 0.833252 30C0.833252 37.7355 3.90616 45.1542 9.37597 50.624C12.0843 53.3324 15.2997 55.4808 18.8383 56.9465C22.377 58.4123 26.1697 59.1667 29.9999 59.1667C37.7354 59.1667 45.1541 56.0938 50.6239 50.624C56.0937 45.1542 59.1666 37.7355 59.1666 30C59.1666 26.1698 58.4122 22.3771 56.9464 18.8384C55.4807 15.2998 53.3322 12.0845 50.6239 9.37609C47.9155 6.66772 44.7002 4.51932 41.1615 3.05355C37.6229 1.58779 33.8301 0.833374 29.9999 0.833374ZM29.9999 19.4709C34.706 22.5284 40.1961 24.1592 45.8083 24.1667C48.0833 24.1667 50.2708 23.9042 52.3708 23.4084C52.9833 25.4792 53.3333 27.6959 53.3333 30C53.3333 42.8625 42.8624 53.3334 29.9999 53.3334C21.2499 53.3334 13.6374 48.4917 9.58325 41.3459L14.6874 35.8334V32.9167C14.6874 31.9498 15.0715 31.0224 15.7553 30.3387C16.439 29.655 17.3663 29.2709 18.3333 29.2709C19.3002 29.2709 20.2275 29.655 20.9112 30.3387C21.595 31.0224 21.9791 31.9498 21.9791 32.9167V35.8334H29.9999V19.4709ZM41.6666 29.2709C40.6997 29.2709 39.7723 29.655 39.0886 30.3387C38.4049 31.0224 38.0208 31.9498 38.0208 32.9167C38.0208 33.8836 38.4049 34.811 39.0886 35.4947C39.7723 36.1784 40.6997 36.5625 41.6666 36.5625C42.6335 36.5625 43.5609 36.1784 44.2446 35.4947C44.9283 34.811 45.3124 33.8836 45.3124 32.9167C45.3124 31.9498 44.9283 31.0224 44.2446 30.3387C43.5609 29.655 42.6335 29.2709 41.6666 29.2709Z" fill="black"/>
</svg>
