<svg width="70" height="70" viewBox="0 0 70 70" fill="none" xmlns="http://www.w3.org/2000/svg">
<path d="M62.864 11.6667C62.599 11.6394 62.3318 11.6394 62.0668 11.6667H7.62235C7.27341 11.6721 6.92678 11.7244 6.5918 11.8223L34.689 39.8028L62.864 11.6667Z" fill="black"/>
<path d="M65.7418 14.3694L37.4307 42.5638C36.7021 43.2881 35.7164 43.6947 34.689 43.6947C33.6617 43.6947 32.676 43.2881 31.9474 42.5638L3.88904 14.5833C3.80278 14.9003 3.75705 15.227 3.75293 15.5555V54.4444C3.75293 55.4758 4.16265 56.4649 4.89196 57.1942C5.62127 57.9236 6.61042 58.3333 7.64182 58.3333H62.0863C63.1177 58.3333 64.1068 57.9236 64.8361 57.1942C65.5654 56.4649 65.9752 55.4758 65.9752 54.4444V15.5555C65.9597 15.1504 65.8809 14.7502 65.7418 14.3694ZM10.3057 54.4444H7.60293V51.6638L21.739 37.6444L24.4807 40.3861L10.3057 54.4444ZM62.0474 54.4444H59.3251L45.1502 40.3861L47.8918 37.6444L62.0279 51.6638L62.0474 54.4444Z" fill="black"/>
</svg>
