<svg width="60" height="60" viewBox="0 0 60 60" fill="none" xmlns="http://www.w3.org/2000/svg">
<path d="M58.417 30.9655L32.167 1.79886C31.0615 0.568024 28.9382 0.568024 27.8328 1.79886L1.58279 30.9655C1.20495 31.3843 0.956943 31.9039 0.868917 32.4611C0.780891 33.0182 0.85664 33.589 1.08695 34.1039C1.55362 35.1568 2.59779 35.8334 3.74987 35.8334H9.5832V56.2501C9.5832 57.0237 9.8905 57.7655 10.4375 58.3125C10.9845 58.8595 11.7263 59.1668 12.4999 59.1668H21.2499C22.0234 59.1668 22.7653 58.8595 23.3123 58.3125C23.8592 57.7655 24.1665 57.0237 24.1665 56.2501V44.5834H35.8332V56.2501C35.8332 57.0237 36.1405 57.7655 36.6875 58.3125C37.2345 58.8595 37.9763 59.1668 38.7499 59.1668H47.4999C48.2734 59.1668 49.0153 58.8595 49.5623 58.3125C50.1092 57.7655 50.4165 57.0237 50.4165 56.2501V35.8334H56.2499C56.8147 35.8358 57.3681 35.6739 57.8425 35.3672C58.3169 35.0606 58.6918 34.6225 58.9215 34.1065C59.1512 33.5904 59.2258 33.0187 59.1363 32.461C59.0467 31.9033 58.7967 31.3837 58.417 30.9655V30.9655Z" fill="black"/>
</svg>
